<?xml version="1.0" standalone="no"?><!DOCTYPE svg PUBLIC "-//W3C//DTD SVG 1.1//EN" "http://www.w3.org/Graphics/SVG/1.1/DTD/svg11.dtd"><svg t="1755947842148" class="icon" viewBox="0 0 1081 1024" version="1.1" xmlns="http://www.w3.org/2000/svg" p-id="2432" data-spm-anchor-id="a313x.search_index.0.i4.7b193a8192MTV0" width="270.25" height="256" xmlns:xlink="http://www.w3.org/1999/xlink"><path d="M612.411449 981.475556a465.848889 465.848889 0 0 1-330.951111-137.528889 39.068444 39.068444 0 0 1 55.182222-55.324445 390.556444 390.556444 0 1 0 0-552.96 39.068444 39.068444 0 0 1-55.182222-55.324444 468.835556 468.835556 0 1 1 330.951111 801.137778z" fill="#989996" p-id="2433" data-spm-anchor-id="a313x.search_index.0.i3.7b193a8192MTV0" class=""></path><path d="M606.864782 838.968889H38.118116A37.632 37.632 0 0 1 0.00256 801.848889c-0.284444-20.764444 22.613333-35.697778 42.666667-33.848889 6.826667 0.568889-0.426667 0 0 0h568.888889c64.426667 0 120.604444-30.008889 166.542222-76.373333a244.295111 244.295111 0 0 0 0-345.173334 239.644444 239.644444 0 0 0-171.235556-71.822222 37.76 37.76 0 0 1-1.28-75.52h1.28a314.311111 314.311111 0 0 1 224.284445 94.008889 320.355556 320.355556 0 0 1 0 451.982222 314.680889 314.680889 0 0 1-224.284445 93.866667z" fill="#005397" p-id="2434" data-spm-anchor-id="a313x.search_index.0.i5.7b193a8192MTV0" class=""></path><path d="M510.153671 569.315556a134.314667 134.314667 0 0 0 169.955556 76.8 126.208 126.208 0 0 0 80.071111-163.271112 134.414222 134.414222 0 0 0-170.097778-76.942222 131.299556 131.299556 0 0 0-74.951111 65.28v0.142222a122.510222 122.510222 0 0 0-4.977778 97.991112z m64.995556-70.542223a67.854222 67.854222 0 0 1 89.031111-30.151111 64.412444 64.412444 0 0 1 33.991111 36.266667 60.401778 60.401778 0 0 1-2.56 48.64 66.844444 66.844444 0 0 1-60.16 36.693333 70.044444 70.044444 0 0 1-28.444445-6.115555 63.175111 63.175111 0 0 1-31.857777-85.333334zM33.709227 615.253333a115.640889 115.640889 0 0 0 86.471111 39.111111h280.462222a70.926222 70.926222 0 0 0 52.906667-23.893333A62.577778 62.577778 0 0 0 469.335893 583.111111v-113.777778a67.285333 67.285333 0 0 0-68.693333-71.111111H120.180338a115.512889 115.512889 0 0 0-86.471111 39.253334 134.058667 134.058667 0 0 0 0 177.777777zM113.780338 469.333333h284.444444c1.564444 0 0-7.395556 0 0v113.777778a7.623111 7.623111 0 0 0 2.417778 7.111111L398.224782 583.111111H113.780338c-29.44 0-42.666667-21.617778-42.666667-56.888889s13.084444-56.888889 42.666667-56.888889z" fill="#B32A1F" p-id="2435" data-spm-anchor-id="a313x.search_index.0.i8.7b193a8192MTV0" class=""></path></svg>